<?xml version="1.0" encoding="utf-8"?>
<!-- Generator: Adobe Illustrator 15.0.0, SVG Export Plug-In . SVG Version: 6.00 Build 0)  -->
<!DOCTYPE svg PUBLIC "-//W3C//DTD SVG 1.1//EN" "http://www.w3.org/Graphics/SVG/1.1/DTD/svg11.dtd">
<svg version="1.1" id="Layer_1" xmlns="http://www.w3.org/2000/svg" xmlns:xlink="http://www.w3.org/1999/xlink" x="0px" y="0px"
	 width="500px" height="500px" viewBox="0 0 500 500" enable-background="new 0 0 500 500" xml:space="preserve">
<g>
	<polygon fill="#010101" points="127.411,149.909 122.705,85.66 101.099,85.66 94.853,117.784 105.081,149.909 	"/>
	<polygon fill="#010101" points="133.223,240.146 128.517,175.906 106.911,175.906 100.656,208.03 110.885,240.146 	"/>
	<polygon fill="#010101" points="112.468,266.152 106.222,298.276 116.45,330.4 138.78,330.4 134.074,266.152 	"/>
	<polygon fill="#010101" points="405.148,117.784 398.885,85.66 377.287,85.66 372.572,149.909 394.902,149.909 	"/>
	<polygon fill="#010101" points="371.483,175.906 366.769,240.146 389.099,240.146 399.327,208.03 393.081,175.906 	"/>
	<polygon fill="#010101" points="365.918,266.152 361.203,330.4 383.533,330.4 393.779,298.276 387.516,266.152 	"/>
	<rect x="176.988" y="464.25" fill="#010101" width="145.054" height="35.75"/>
	<path fill="#010101" d="M249.525,0.069c0,0-110.584-3.183-120.242,33.708l21.053,316.324c0,0,3.574,24.125,20.56,43.783
		c0,0,8.033,30.38,6.246,57.186h72.384h72.363c-1.787-26.806,6.263-57.186,6.263-57.186c16.969-19.658,20.543-43.783,20.543-43.783
		l21.053-316.324C360.098-3.114,249.525,0.069,249.525,0.069z M186.077,93.659c13.326,0,24.134,10.799,24.134,24.125
		s-10.808,24.125-24.134,24.125s-24.117-10.799-24.117-24.125S172.751,93.659,186.077,93.659z M167.321,208.03
		c0-13.326,10.799-24.125,24.117-24.125c13.326,0,24.133,10.799,24.133,24.125s-10.807,24.125-24.133,24.125
		C178.12,232.155,167.321,221.356,167.321,208.03z M199.488,322.401c-13.326,0-24.134-10.808-24.134-24.125
		c0-13.326,10.808-24.125,24.134-24.125c13.318,0,24.117,10.799,24.117,24.125C223.605,311.594,212.806,322.401,199.488,322.401z
		 M301.346,322.401c-13.326,0-24.134-10.808-24.134-24.125c0-13.326,10.808-24.125,24.134-24.125s24.117,10.799,24.117,24.125
		C325.463,311.594,314.672,322.401,301.346,322.401z M309.379,232.155c-13.326,0-24.116-10.799-24.116-24.125
		s10.79-24.125,24.116-24.125s24.134,10.799,24.134,24.125S322.705,232.155,309.379,232.155z M314.74,141.91
		c-13.326,0-24.117-10.799-24.117-24.125s10.791-24.125,24.117-24.125s24.134,10.799,24.134,24.125S328.066,141.91,314.74,141.91z"
		/>
</g>
</svg>
