<?xml version="1.0" encoding="utf-8"?>
<!-- Generator: Adobe Illustrator 18.1.0, SVG Export Plug-In . SVG Version: 6.00 Build 0)  -->
<svg version="1.1" id="Layer_1" xmlns="http://www.w3.org/2000/svg" xmlns:xlink="http://www.w3.org/1999/xlink" x="0px" y="0px"
	 viewBox="0 0 500 500" enable-background="new 0 0 500 500" xml:space="preserve">
<g>
	
		<rect x="294.4" y="115.2" transform="matrix(-0.9387 -0.3446 0.3446 -0.9387 650.1656 356.6668)" fill="#010101" width="124.7" height="10.7"/>
	<polygon fill="#010101" points="411,153.8 293.9,110.8 281.3,145.4 398.4,188.3 	"/>
	
		<rect x="273.2" y="173.2" transform="matrix(-0.9387 -0.3446 0.3446 -0.9387 588.9542 461.8746)" fill="#010101" width="124.7" height="10.7"/>
	
		<rect x="104.9" y="115.3" transform="matrix(0.9387 -0.3446 0.3446 0.9387 -31.3302 65.0347)" fill="#010101" width="124.7" height="10.7"/>
	
		<rect x="115.4" y="131.2" transform="matrix(-0.9387 0.3446 -0.3446 -0.9387 396.2407 228.7773)" fill="#010101" width="124.7" height="36.8"/>
	
		<rect x="183.1" y="116.2" transform="matrix(-0.3446 -0.9387 0.9387 -0.3446 85.8618 416.9727)" fill="#010101" width="10.7" height="124.7"/>
	<path fill="#010101" d="M262,204.7c-60.2,0-109.1,48.9-109.1,109.1S201.8,422.9,262,422.9s109.1-48.9,109.1-109.1
		C371.2,253.6,322.1,204.7,262,204.7z"/>
	<path fill="#010101" d="M262,182.1c-72.8,0-131.7,58.9-131.7,131.7s59,131.7,131.7,131.7c72.8,0,131.7-59,131.7-131.7
		C393.7,241,334.7,182.1,262,182.1z M262,432.1c-65.3,0-118.3-53-118.3-118.3s53-118.3,118.3-118.3s118.3,53,118.3,118.3
		C380.3,379.1,327.3,432.1,262,432.1z"/>
	<path fill="#010101" d="M378.1,221.3H500c0-4.2-27.3-7.7-60.9-7.7C405.4,213.4,378.1,216.9,378.1,221.3z"/>
	<path fill="#010101" d="M439.1,235.9c33.7,0,60.9-3.5,60.9-7.7H378.1C378.1,232.4,405.4,235.9,439.1,235.9z"/>
	<polygon fill="#010101" points="435.8,422.1 412.5,445.6 423.7,445.6 439.8,429.4 455.9,445.6 467.2,445.6 443.8,422.1 
		443.8,235.9 439.1,235.9 435.8,235.9 	"/>
	<path fill="#010101" d="M88.9,81l81,23.1c1.1-4.1-35.9-18.3-82.8-31.7C40.2,58.9,1.1,51.4,0,55.5l81,23.1v343.5l-23.3,23.5h11.2
		L85,429.5l16.1,16.1h11.2L89,422.2V81H88.9z"/>
</g>
</svg>
